<?xml version="1.0" encoding="UTF-8"?>
<svg id="Layer_1" data-name="Layer 1" xmlns="http://www.w3.org/2000/svg" version="1.1" viewBox="0 0 303.4 109">
  <defs>
    <style>
      .cls-1 {
        fill: #009fe3;
        stroke-width: 0px;
      }
    </style>
  </defs>
  <g>
    <path class="cls-1" d="M0,67.9h14.1c12.7,0,21.5,8.7,21.5,20.2h0c0,11.5-8.8,20.4-21.5,20.4H0v-40.5ZM14.1,104.2c10.2,0,16.8-6.9,16.8-15.9h0c0-9.1-6.5-16.2-16.8-16.2H4.6v32.1h9.5Z"/>
    <path class="cls-1" d="M45.3,67.9h29.3v4.2h-24.7v13.8h22.1v4.2h-22.1v14.2h25v4.2h-29.6v-40.5Z"/>
    <path class="cls-1" d="M84.1,67.9h4.3l25.5,32.5v-32.5h4.5v40.5h-3.6l-26.2-33.2v33.2h-4.5v-40.5Z"/>
    <path class="cls-1" d="M140.6,72.1h-13.6v-4.2h31.8v4.2h-13.6v36.3h-4.6v-36.3Z"/>
    <path class="cls-1" d="M177.2,67.6h4.3l18.5,40.8h-4.9l-4.7-10.7h-22.1l-4.8,10.7h-4.7l18.5-40.8ZM188.4,93.6l-9.2-20.7-9.3,20.7h18.5Z"/>
    <path class="cls-1" d="M207.9,67.9h4.6v36.3h22.8v4.2h-27.4v-40.5Z"/>
    <path class="cls-1" d="M248.9,92.4l-16.9-24.5h5.6l13.7,20.3,13.8-20.3h5.3l-16.9,24.4v16.1h-4.6v-16Z"/>
    <path class="cls-1" d="M273,102.5l2.8-3.4c4.2,3.8,8.3,5.7,13.9,5.7s9-2.9,9-6.9h0c0-3.9-2-6-10.5-7.8-9.3-2-13.6-5-13.6-11.7h0c0-6.5,5.6-11.2,13.3-11.2s10.1,1.7,14.2,5l-2.7,3.5c-3.8-3.1-7.5-4.4-11.7-4.4s-8.6,2.9-8.6,6.5h0c0,3.9,2.1,6.1,11,8,9,2,13.2,5.3,13.2,11.5h0c0,7.1-5.8,11.6-13.8,11.6s-11.7-2.1-16.6-6.5Z"/>
  </g>
  <path class="cls-1" d="M126.6,0v16.7c0,15.8,11,26.7,25.1,26.7h.1c14.1,0,25-10.9,25-26.7V0h-50.2ZM173.4,16.7c0,.5,0,1,0,1.5h-9.6V3.7h9.6v13ZM141,3.7h9.4v14.5h-9.4V3.7ZM150.4,20.2v19.3c-3.4-.2-6.6-1.1-9.4-2.6v-16.7h9.4ZM152.4,20.2h9.4v17c-2.8,1.4-6,2.2-9.4,2.3v-19.3ZM152.4,18.2V3.7h9.4v14.5h-9.4ZM130,3.7h8.9v14.5h-8.9c0-.5,0-1,0-1.5V3.7ZM130.3,20.2h8.7v15.4c-4.7-3.3-7.9-8.6-8.7-15.4ZM163.7,36v-15.8h9.4c-.9,7.1-4.4,12.5-9.4,15.8Z"/>
</svg>